<svg width="81" height="82" viewBox="0 0 81 82" fill="none" xmlns="http://www.w3.org/2000/svg">
<g id="Group 3">
<circle id="Ellipse 3" cx="40.5" cy="41.1401" r="40.5" fill="#F2B04D"/>
<g id="Collabo" filter="url(#filter0_d_44_1218)">
<path id="Vector" d="M56.4 37.3777C56.4 36.2438 56.0638 35.1353 55.4338 34.1925C54.8038 33.2496 53.9084 32.5148 52.8607 32.0808C51.8131 31.6469 50.6603 31.5334 49.5482 31.7546C48.436 31.9758 47.4144 32.5218 46.6126 33.3237C45.8108 34.1255 45.2647 35.1471 45.0435 36.2592C44.8223 37.3714 44.9358 38.5242 45.3698 39.5718C45.8037 40.6194 46.5386 41.5149 47.4814 42.1448C48.4243 42.7748 49.5327 43.1111 50.6667 43.1111C52.1873 43.1111 53.6456 42.507 54.7208 41.4318C55.796 40.3566 56.4 38.8983 56.4 37.3777ZM48.7556 37.3777C48.7556 36.9998 48.8677 36.6303 49.0777 36.316C49.2876 36.0017 49.5861 35.7568 49.9353 35.6121C50.2845 35.4675 50.6688 35.4296 51.0395 35.5034C51.4102 35.5771 51.7508 35.7591 52.018 36.0264C52.2853 36.2937 52.4673 36.6342 52.5411 37.0049C52.6148 37.3756 52.577 37.7599 52.4323 38.1091C52.2877 38.4583 52.0427 38.7568 51.7284 38.9668C51.4142 39.1768 51.0447 39.2889 50.6667 39.2889C50.1598 39.2889 49.6737 39.0875 49.3153 38.7291C48.9569 38.3707 48.7556 37.8846 48.7556 37.3777Z" fill="white"/>
<path id="Vector_2" d="M50.6667 45.0222C49.4019 45.0199 48.1492 45.2687 46.9813 45.7543C45.8134 46.2398 44.7535 46.9523 43.8631 47.8506C42.7625 45.4851 40.8882 43.5657 38.5495 42.4092C36.2109 41.2527 33.5478 40.9283 30.9999 41.4896C28.452 42.0508 26.1717 43.4641 24.5354 45.4962C22.8992 47.5283 22.0048 50.0576 22 52.6666V58.3999H60.2222V54.5777C60.2222 52.0434 59.2155 49.6129 57.4235 47.8209C55.6315 46.0289 53.201 45.0222 50.6667 45.0222ZM44.9333 54.5777C44.9333 53.0571 45.5374 51.5988 46.6126 50.5236C47.6878 49.4484 49.1461 48.8444 50.6667 48.8444C52.1872 48.8444 53.6455 49.4484 54.7207 50.5236C55.796 51.5988 56.4 53.0571 56.4 54.5777H44.9333Z" fill="white"/>
<path id="Vector_3" d="M33.4666 39.2889C37.6886 39.2889 41.1111 35.8664 41.1111 31.6444C41.1111 27.4225 37.6886 24 33.4666 24C29.2447 24 25.8222 27.4225 25.8222 31.6444C25.8222 35.8664 29.2447 39.2889 33.4666 39.2889Z" fill="white"/>
</g>
</g>
<defs>
<filter id="filter0_d_44_1218" x="18" y="24" width="46.2222" height="42.3999" filterUnits="userSpaceOnUse" color-interpolation-filters="sRGB">
<feFlood flood-opacity="0" result="BackgroundImageFix"/>
<feColorMatrix in="SourceAlpha" type="matrix" values="0 0 0 0 0 0 0 0 0 0 0 0 0 0 0 0 0 0 127 0" result="hardAlpha"/>
<feOffset dy="4"/>
<feGaussianBlur stdDeviation="2"/>
<feComposite in2="hardAlpha" operator="out"/>
<feColorMatrix type="matrix" values="0 0 0 0 0 0 0 0 0 0 0 0 0 0 0 0 0 0 0.1 0"/>
<feBlend mode="normal" in2="BackgroundImageFix" result="effect1_dropShadow_44_1218"/>
<feBlend mode="normal" in="SourceGraphic" in2="effect1_dropShadow_44_1218" result="shape"/>
</filter>
</defs>
</svg>
