<svg width="190" height="33" viewBox="0 0 190 33" fill="none" xmlns="http://www.w3.org/2000/svg">
<g id="Logo">
<g id="ANGIES">
<path d="M3.64923 32.5584C5.76194 32.5584 6.89032 31.5127 7.68259 28.8169L8.95502 25.0289H19.9747L21.2231 28.8169C22.0154 31.443 23.2398 32.5584 25.3525 32.5584C27.6333 32.5584 29.1218 31.257 29.1218 29.2352C29.1218 28.4218 28.9057 27.4923 28.4736 26.1908L21.2472 5.62394C19.9267 1.83592 18.1021 0.348592 14.6449 0.348592C11.1878 0.348592 9.31514 1.85916 8.0187 5.62394L0.768259 26.1908C0.216073 27.7479 0 28.631 0 29.3979C0 31.257 1.4885 32.5584 3.64923 32.5584ZM10.5876 19.4746L14.3088 7.45986H14.6929L18.3662 19.4746H10.5876Z" fill="#272D3D"/>
<path d="M45.6586 28.538V13.3394H45.9707L57.1104 29.4908C58.743 31.8148 59.8234 32.5352 61.6 32.5352C64.0248 32.5352 65.3212 31.0479 65.3212 28.2592V4.34577C65.3212 1.83592 63.9287 0.348592 61.6 0.348592C59.2952 0.348592 57.9507 1.83592 57.9507 4.34577V19.3584H57.6386L46.5949 3.4162C45.0104 1.18521 44.002 0.348592 42.2494 0.348592C39.6325 0.348592 38.3121 1.88239 38.3121 4.85704V28.538C38.3121 31.0246 39.6806 32.5352 42.0094 32.5352C44.3381 32.5352 45.6586 31.0479 45.6586 28.538Z" fill="#272D3D"/>
<path d="M75.4238 18.5218C75.4238 27.562 80.7776 33 89.8767 33C97.9674 33 103.417 28.2592 103.417 21.2641V19.3352C103.417 16.3838 102.025 15.0592 98.8557 15.0592H92.9737C90.861 15.0592 89.7326 16.012 89.7326 17.7549C89.7326 19.5211 90.885 20.4972 92.9737 20.4972H95.9267V21.8451C95.9267 24.75 93.6219 26.7021 90.1888 26.7021C85.7713 26.7021 83.3465 23.7972 83.3465 18.4986V14.6641C83.3465 9.29578 85.7233 6.4838 90.2608 6.4838C93.3578 6.4838 95.1585 8.29648 97.1031 10.1789C97.7993 10.8528 98.5196 11.1549 99.4559 11.1549C101.353 11.1549 102.673 9.9 102.673 8.06408C102.673 6.22817 101.257 4.22958 99.0958 2.71901C96.695 0.976056 93.4059 0 89.6846 0C80.8496 0 75.4238 5.50775 75.4238 14.2923V18.5218Z" fill="#272D3D"/>
<path d="M117.385 32.5352C119.906 32.5352 121.322 31.0479 121.322 28.3986V4.48521C121.322 1.85915 119.882 0.348592 117.337 0.348592C114.792 0.348592 113.376 1.83592 113.376 4.48521V28.3986C113.376 31.0246 114.84 32.5352 117.385 32.5352Z" fill="#272D3D"/>
<path d="M132.601 27.9106C132.601 30.769 134.21 32.3028 137.211 32.3028H151.952C153.897 32.3028 155.193 31.1176 155.193 29.2585C155.193 27.4225 153.897 26.2141 151.976 26.2141H140.452V19.1493H151.496C153.2 19.1493 154.353 18.057 154.353 16.3606C154.353 14.6873 153.2 13.5254 151.496 13.5254H140.452V6.66972H152.072C153.897 6.66972 155.193 5.43803 155.193 3.64859C155.193 1.83592 153.897 0.580986 152.072 0.580986H137.211C134.21 0.580986 132.601 2.13803 132.601 4.97324V27.9106Z" fill="#272D3D"/>
<path d="M163.615 25.7725C163.615 27.0739 164.383 28.4218 165.776 29.7C168.009 31.7451 172.018 33 176.531 33C184.742 33 190 28.9796 190 22.7282C190 17.9176 187.047 15.0127 180.949 13.8275L176.387 12.8746C173.338 12.2937 171.946 11.062 171.946 9.31901C171.946 7.32042 173.771 6.04225 176.676 6.04225C179.148 6.04225 181.093 6.97183 182.774 8.76127C183.782 9.69084 184.814 10.1324 185.847 10.1324C187.695 10.1324 188.944 8.97042 188.944 7.27394C188.944 5.85634 188.199 4.46197 186.783 3.20704C184.574 1.18521 180.781 0 176.579 0C168.897 0 163.999 3.85775 163.999 9.94648C163.999 14.8035 166.904 17.7549 172.81 18.9634L177.324 19.9627C180.781 20.6831 182.221 21.7754 182.221 23.5415C182.221 25.7261 180.373 26.9345 176.94 26.9345C174.515 26.9345 172.138 25.9585 170.169 24.169C168.849 23.0303 167.865 22.612 166.712 22.612C165.008 22.612 163.615 23.9134 163.615 25.7725Z" fill="#272D3D"/>
</g>
</g>
</svg>
